<svg xmlns="http://www.w3.org/2000/svg" viewBox="0 0 96 96" role="img" aria-labelledby="title desc">
  <title id="title">No sales pressure people icon</title>
  <desc id="desc">Polished people and conversation icon in Beacon and Sage blue and gold.</desc>
  <defs>
    <radialGradient id="bg" cx="34%" cy="26%" r="72%">
      <stop offset="0%" stop-color="#FFFFFF"/>
      <stop offset="62%" stop-color="#F4FAFE"/>
      <stop offset="100%" stop-color="#EAF4FB"/>
    </radialGradient>
    <linearGradient id="goldStroke" x1="20" y1="18" x2="78" y2="80" gradientUnits="userSpaceOnUse">
      <stop offset="0%" stop-color="#F0C56A"/>
      <stop offset="100%" stop-color="#D9A13A"/>
    </linearGradient>
    <filter id="softShadow" x="-20%" y="-20%" width="140%" height="140%">
      <feDropShadow dx="0" dy="4" stdDeviation="4" flood-color="#071F4F" flood-opacity="0.12"/>
    </filter>
  </defs>

  <circle cx="48" cy="48" r="40" fill="url(#bg)" filter="url(#softShadow)"/>
  <circle cx="48" cy="48" r="39" fill="none" stroke="#9DB7D4" stroke-width="1.6"/>
  <path d="M20 72C31 82 47 86 62 80" fill="none" stroke="url(#goldStroke)" stroke-width="2.4" stroke-linecap="round" opacity=".9"/>

  <circle cx="48" cy="32" r="7" fill="#F8FCFF" stroke="#071F4F" stroke-width="3"/>
  <circle cx="31" cy="41" r="5.8" fill="#F8FCFF" stroke="#071F4F" stroke-width="2.8"/>
  <circle cx="65" cy="41" r="5.8" fill="#F8FCFF" stroke="#071F4F" stroke-width="2.8"/>
  <path d="M34.5 66.5c1.2-9.4 6.5-14.8 13.5-14.8s12.3 5.4 13.5 14.8" fill="none" stroke="#071F4F" stroke-width="3.2" stroke-linecap="round"/>
  <path d="M16.8 66.5c1-7.6 5.3-12 11.1-12 4 0 7.2 2 9.2 5.4" fill="none" stroke="#0B5EA8" stroke-width="3" stroke-linecap="round"/>
  <path d="M58.9 59.9c2-3.4 5.2-5.4 9.2-5.4 5.8 0 10.1 4.4 11.1 12" fill="none" stroke="#0B5EA8" stroke-width="3" stroke-linecap="round"/>
  <path d="M70.5 25.5h7.5v7.5" fill="none" stroke="#D9A13A" stroke-width="2.6" stroke-linecap="round" stroke-linejoin="round"/>
</svg>
